<?xml version="1.0" standalone="no"?><!DOCTYPE svg PUBLIC "-//W3C//DTD SVG 1.1//EN" "http://www.w3.org/Graphics/SVG/1.1/DTD/svg11.dtd"><svg width="1048.83px" height="775.57px"
		style="transform-origin: 0px 0px 0px;" version="1.1"
		xmlns="http://www.w3.org/2000/svg" xmlns:xlink="http://www.w3.org/1999/xlink"><defs><style xmlns="http://www.w3.org/2000/svg" type="text/css"><![CDATA[
		* {
			text-rendering: geometricprecision !important;
		}
		]]><![CDATA[@font-face {
  font-family: 'Noto Sans Hebrew';
  font-style: normal;
  font-weight: 400;
  src: local('Noto Sans Hebrew Regular'), local('Noto Sans Hebrew-Regular'), url("https://mirostatic.com/app/static/7ebe1dcf0343326c.woff2") format('woff2'), url("https://mirostatic.com/app/static/6c11f037d6968262.woff") format('woff');
}
@font-face {
  font-family: 'Noto Sans Hebrew';
  font-style: normal;
  font-weight: 700;
  src: local('Noto Sans Hebrew Bold'), local('Noto Sans Hebrew-Bold'), url("https://mirostatic.com/app/static/d2883e2f177d0dad.woff2") format('woff2'), url("https://mirostatic.com/app/static/8546991909eadbc9.woff") format('woff');
}
]]><![CDATA[@font-face {
  font-family: 'Noto Sans';
  font-style: normal;
  font-weight: 400;
  src: local('Noto Sans'), local('NotoSans'), url("https://mirostatic.com/app/static/a73798e3d459e1bc.woff2") format('woff2');
}
@font-face {
  font-family: 'Noto Sans';
  font-style: italic;
  font-weight: 400;
  src: local('Noto Sans Italic'), local('NotoSans-Italic'), url("https://mirostatic.com/app/static/a8edd710f88715d4.woff2") format('woff2');
}
@font-face {
  font-family: 'Noto Sans';
  font-style: normal;
  font-weight: 500;
  src: local('Noto Sans Medium'), local('NotoSans-Medium'), url("https://mirostatic.com/app/static/006d7e33e60b9e12.woff2") format('woff2');
}
@font-face {
  font-family: 'Noto Sans';
  font-style: italic;
  font-weight: 500;
  src: local('Noto Sans Medium Italic'), local('NotoSans-MediumItalic'), url("https://mirostatic.com/app/static/31387059566a3171.woff2") format('woff2');
}
@font-face {
  font-family: 'Noto Sans';
  font-style: normal;
  font-weight: 600;
  src: local('Noto Sans SemiBold'), local('NotoSans-SemiBold'), url("https://mirostatic.com/app/static/526dd53b40975c37.woff2") format('woff2');
}
@font-face {
  font-family: 'Noto Sans';
  font-style: italic;
  font-weight: 600;
  src: local('Noto Sans SemiBold Italic'), local('NotoSans-SemiBoldItalic'), url("https://mirostatic.com/app/static/e73d4fdd87d7e319.woff2") format('woff2');
}
@font-face {
  font-family: 'Noto Sans';
  font-style: normal;
  font-weight: 700;
  src: local('Noto Sans Bold'), local('NotoSans-Bold'), url("https://mirostatic.com/app/static/9f11d6779c14d2bc.woff2") format('woff2');
}
@font-face {
  font-family: 'Noto Sans';
  font-style: italic;
  font-weight: 700;
  src: local('Noto Sans Bold Italic'), local('NotoSans-BoldItalic'), url("https://mirostatic.com/app/static/888e13e017cedc15.woff2") format('woff2');
}
]]><![CDATA[@font-face {
  font-family: 'Noto Sans JP';
  font-style: normal;
  font-weight: 400;
  src: local('Noto Sans Japanese Regular'), local('Noto Sans Japanese-Regular'), url("https://mirostatic.com/app/static/9320b3c07ab79383.woff2") format('woff2'), url("https://mirostatic.com/app/static/a43be2cbcfc0b250.woff") format('woff');
}
@font-face {
  font-family: 'Noto Sans JP';
  font-style: normal;
  font-weight: 700;
  src: local('Noto Sans Japanese Bold'), local('Noto Sans Japanese-Bold'), url("https://mirostatic.com/app/static/7ab032c73212439f.woff2") format('woff2'), url("https://mirostatic.com/app/static/29f177f4466bd7a1.woff") format('woff');
}
]]><![CDATA[@font-face {
  font-family: 'Noto Sans KR';
  font-style: normal;
  font-weight: 400;
  src: local(''), url("https://mirostatic.com/app/static/7a5b625774730d22.woff2") format('woff2'), url("https://mirostatic.com/app/static/2d84dc606f1fb88e.woff") format('woff');
}
@font-face {
  font-family: 'Noto Sans KR';
  font-style: normal;
  font-weight: 700;
  src: local(''), url("https://mirostatic.com/app/static/fa5a3d9073cdd58f.woff2") format('woff2'), url("https://mirostatic.com/app/static/7ded243557c83342.woff") format('woff');
}
]]></style><path id="LineHeadArrow2" d="M-12.727272727272727,-7.545454545454545 L0,0 L-12.727272727272727,7.545454545454545 Z"></path></defs><rect id="svg-board-background-color" width="100%" height="100%" fill="#f2f2f2"></rect><g width="1048.83px" height="775.57px"  transform="translate(0.16, 0.24) scale(1) rotate(0, 524.415, 387.785)"><svg
	width="1048.8337716758158"
	height="775.5683706956142"
	style="width:1048.8337716758158px; height: 775.5683706956142px;"
	class="diagram-widget"
	preserveAspectRatio="none"
	version="1.1"
	xmlns="http://www.w3.org/2000/svg"
>
	<clipPath id="372221167003">
		<rect x="0" y="0" width="1048.8337716758158" height="775.5683706956142" rx="0" ry="0"></rect>
	</clipPath>
	<g id="Page-1" stroke="none" stroke-width="0" fill="none" fill-rule="evenodd">
		<rect
			class="shape-element shape-element-rect"
			fill="#ffffff"
			fill-opacity="1"
			x="0"
			y="0"
			width="1048.8337716758158"
			height="775.5683706956142"
			rx="0"
			ry="0"
			clip-path="url(#372221167003)"
		></rect>
	</g>
	<g transform="translate(0, 0)">
		<text x="0" y="14" font-size="14"></text>
	</g>
</svg>
</g><g width="192px" height="108px"  transform="translate(144.16, 41.24) scale(1) rotate(0, 96, 54)"><g><g style="stroke: #595959;stroke-width: 2;stroke-opacity: 1;stroke-dasharray: none;stroke-linecap: round;stroke-linejoin: round;fill: transparent;fill-opacity: 0"><path d="M 42 0 L8,0A8,8,0,0,0,0,8 L0,100A8,8,0,0,0,8,108 L 42 108"/></g><g style="stroke: #595959;stroke-width: 2;stroke-opacity: 1;stroke-dasharray: none;stroke-linecap: round;stroke-linejoin: round;fill: transparent;fill-opacity: 0"></g></g><g transform="translate(12, 12)"><text xml:space="preserve" x="11.42431640625" y="48" width="157.1513671875" textLength="157.1513671875" lengthAdjust="spacingAndGlyphs" letter-spacing="0" font-family='"Arial", Arial, sans-serif, Noto Sans Hebrew, Noto Sans, Noto Sans JP, Noto Sans KR' font-size="14" 
				fill="#222428" direction="ltr" >Host Process (.NET App)</text></g></g><g width="144px" height="108px"  transform="translate(452.16, 41.24) scale(1) rotate(0, 72, 54)"><g><g style="stroke: #108ab3;stroke-width: 2;stroke-opacity: 1;stroke-dasharray: none;stroke-linecap: round;stroke-linejoin: round;fill: #ccf4ff;fill-opacity: 1"><rect x="0" y="0" width="144" height="108" rx="8" /></g></g><g><g style="stroke: #108ab3;stroke-width: 2;stroke-opacity: 1;stroke-dasharray: none;stroke-linecap: round;stroke-linejoin: round;fill: transparent;fill-opacity: 0"></g></g><g transform="translate(16, 16)"><text xml:space="preserve" x="11.24853515625" y="44" width="89.5029296875" textLength="89.5029296875" lengthAdjust="spacingAndGlyphs" letter-spacing="0" font-family='"Arial", Arial, sans-serif, Noto Sans Hebrew, Noto Sans, Noto Sans JP, Noto Sans KR' font-size="14" 
				fill="#222428" direction="ltr" >Main Endpoint</text></g></g><g width="144px" height="108px"  transform="translate(803.26, 257.24) scale(1) rotate(0, 72, 54)"><g><g style="stroke: #108ab3;stroke-width: 2;stroke-opacity: 1;stroke-dasharray: none;stroke-linecap: round;stroke-linejoin: round;fill: #ccf4ff;fill-opacity: 1"><rect x="0" y="0" width="144" height="108.00000000000023" rx="8" /></g></g><g><g style="stroke: #108ab3;stroke-width: 2;stroke-opacity: 1;stroke-dasharray: none;stroke-linecap: round;stroke-linejoin: round;fill: transparent;fill-opacity: 0"></g></g><g transform="translate(16, 16)"><text xml:space="preserve" x="20.58984375" y="44.000000000000114" width="70.8203125" textLength="70.8203125" lengthAdjust="spacingAndGlyphs" letter-spacing="0" font-family='"Arial", Arial, sans-serif, Noto Sans Hebrew, Noto Sans, Noto Sans JP, Noto Sans KR' font-size="14" 
				fill="#222428" direction="ltr" >Partition p0</text></g></g><g width="144px" height="108px"  transform="translate(68.16, 257.24) scale(1) rotate(0, 72, 54)"><g><g style="stroke: #108ab3;stroke-width: 2;stroke-opacity: 1;stroke-dasharray: none;stroke-linecap: round;stroke-linejoin: round;fill: #ccf4ff;fill-opacity: 1"><rect x="0" y="0" width="144" height="108" rx="8" /></g></g><g><g style="stroke: #108ab3;stroke-width: 2;stroke-opacity: 1;stroke-dasharray: none;stroke-linecap: round;stroke-linejoin: round;fill: transparent;fill-opacity: 0"></g></g><g transform="translate(16, 16)"><text xml:space="preserve" x="20.58984375" y="44" width="70.8203125" textLength="70.8203125" lengthAdjust="spacingAndGlyphs" letter-spacing="0" font-family='"Arial", Arial, sans-serif, Noto Sans Hebrew, Noto Sans, Noto Sans JP, Noto Sans KR' font-size="14" 
				fill="#222428" direction="ltr" >Partition p1</text></g></g><g width="144px" height="108px"  transform="translate(452.16, 257.24) scale(1) rotate(0, 72, 54)"><g><g style="stroke: #108ab3;stroke-width: 2;stroke-opacity: 1;stroke-dasharray: none;stroke-linecap: round;stroke-linejoin: round;fill: #ccf4ff;fill-opacity: 1"><rect x="0" y="0" width="144" height="108" rx="8" /></g></g><g><g style="stroke: #108ab3;stroke-width: 2;stroke-opacity: 1;stroke-dasharray: none;stroke-linecap: round;stroke-linejoin: round;fill: transparent;fill-opacity: 0"></g></g><g transform="translate(16, 16)"><text xml:space="preserve" x="20.58984375" y="44" width="70.8203125" textLength="70.8203125" lengthAdjust="spacingAndGlyphs" letter-spacing="0" font-family='"Arial", Arial, sans-serif, Noto Sans Hebrew, Noto Sans, Noto Sans JP, Noto Sans KR' font-size="14" 
				fill="#222428" direction="ltr" >Partition p2</text></g></g><g width="436.34px" height="131.3px"  transform="translate(300.16, 627.81) scale(1) rotate(0, 218.17, 65.65)"><g><g style="stroke: #1a1a1a;stroke-width: 2;stroke-opacity: 1;stroke-dasharray: none;stroke-linecap: round;stroke-linejoin: round;fill: #fff6b6;fill-opacity: 1"><path d="M 0 26.259623073333152 C 0,-8.75320769111105 436.3410781059133,-8.75320769111105 436.3410781059133,26.259623073333152 L 436.3410781059133 105.03849229333261 C 436.3410781059133,140.0513230577768 0,140.0513230577768 0,105.03849229333261 L 0 26.259623073333152 Z Z"/></g></g><g><g style="stroke: #1a1a1a;stroke-width: 2;stroke-opacity: 1;stroke-dasharray: none;stroke-linecap: round;stroke-linejoin: round;fill: transparent;fill-opacity: 0"><path d="M 0 26.259623073333152 C 0,61.272453837777356 436.3410781059133,61.272453837777356 436.3410781059133,26.259623073333152"/></g><g style="stroke: #1a1a1a;stroke-width: 2;stroke-opacity: 1;stroke-dasharray: none;stroke-linecap: round;stroke-linejoin: round;fill: transparent;fill-opacity: 0"></g></g><g transform="translate(16, 60.519246146666305)"><text xml:space="preserve" x="142.62952342795666" y="37.38943460999973" width="119.08203125" textLength="119.08203125" lengthAdjust="spacingAndGlyphs" letter-spacing="0" font-family='"Arial", Arial, sans-serif, Noto Sans Hebrew, Noto Sans, Noto Sans JP, Noto Sans KR' font-size="14" 
				fill="#222428" direction="ltr" >Tenant A Database</text></g></g><g width="152px" height="108px"  transform="translate(799.26, 472.96) scale(1) rotate(0, 76, 54)"><g><g style="stroke: #108ab3;stroke-width: 2;stroke-opacity: 1;stroke-dasharray: none;stroke-linecap: round;stroke-linejoin: round;fill: #adf0c7;fill-opacity: 1"><path d="M 10.8 0 L 141.2 0 C 155.6,0 155.6,108 141.2,108 L 10.8 108 C -3.5999999999999996,108 -3.5999999999999996,0 10.8,0 Z Z"/></g></g><g><g style="stroke: #108ab3;stroke-width: 2;stroke-opacity: 1;stroke-dasharray: none;stroke-linecap: round;stroke-linejoin: round;fill: transparent;fill-opacity: 0"><path d="M 141.2 0 C 126.79999999999998,0 126.79999999999998,108 141.2,108"/></g><g style="stroke: #108ab3;stroke-width: 2;stroke-opacity: 1;stroke-dasharray: none;stroke-linecap: round;stroke-linejoin: round;fill: transparent;fill-opacity: 0"></g></g><g transform="translate(16, 8)"><text xml:space="preserve" x="17.789843750000003" y="44" width="74.7099609375" textLength="74.7099609375" lengthAdjust="spacingAndGlyphs" letter-spacing="0" font-family='"Arial", Arial, sans-serif, Noto Sans Hebrew, Noto Sans, Noto Sans JP, Noto Sans KR' font-size="14" 
				fill="#222428" direction="ltr" >Partition p0 </text><text xml:space="preserve" x="32.18291015625" y="60" width="42.0341796875" textLength="42.0341796875" lengthAdjust="spacingAndGlyphs" letter-spacing="0" font-family='"Arial", Arial, sans-serif, Noto Sans Hebrew, Noto Sans, Noto Sans JP, Noto Sans KR' font-size="14" 
				fill="#222428" direction="ltr" >Queue</text></g></g><g width="152px" height="108px"  transform="translate(64.16, 473.24) scale(1) rotate(0, 76, 54)"><g><g style="stroke: #108ab3;stroke-width: 2;stroke-opacity: 1;stroke-dasharray: none;stroke-linecap: round;stroke-linejoin: round;fill: #adf0c7;fill-opacity: 1"><path d="M 10.8 0 L 141.2 0 C 155.6,0 155.6,108 141.2,108 L 10.8 108 C -3.5999999999999996,108 -3.5999999999999996,0 10.8,0 Z Z"/></g></g><g><g style="stroke: #108ab3;stroke-width: 2;stroke-opacity: 1;stroke-dasharray: none;stroke-linecap: round;stroke-linejoin: round;fill: transparent;fill-opacity: 0"><path d="M 141.2 0 C 126.79999999999998,0 126.79999999999998,108 141.2,108"/></g><g style="stroke: #108ab3;stroke-width: 2;stroke-opacity: 1;stroke-dasharray: none;stroke-linecap: round;stroke-linejoin: round;fill: transparent;fill-opacity: 0"></g></g><g transform="translate(16, 8)"><text xml:space="preserve" x="17.789843750000003" y="44" width="74.7099609375" textLength="74.7099609375" lengthAdjust="spacingAndGlyphs" letter-spacing="0" font-family='"Arial", Arial, sans-serif, Noto Sans Hebrew, Noto Sans, Noto Sans JP, Noto Sans KR' font-size="14" 
				fill="#222428" direction="ltr" >Partition p1 </text><text xml:space="preserve" x="32.18291015625" y="60" width="42.0341796875" textLength="42.0341796875" lengthAdjust="spacingAndGlyphs" letter-spacing="0" font-family='"Arial", Arial, sans-serif, Noto Sans Hebrew, Noto Sans, Noto Sans JP, Noto Sans KR' font-size="14" 
				fill="#222428" direction="ltr" >Queue</text></g></g><g width="152px" height="108px"  transform="translate(448.16, 473.24) scale(1) rotate(0, 76, 54)"><g><g style="stroke: #108ab3;stroke-width: 2;stroke-opacity: 1;stroke-dasharray: none;stroke-linecap: round;stroke-linejoin: round;fill: #adf0c7;fill-opacity: 1"><path d="M 10.8 0 L 141.2 0 C 155.6,0 155.6,108 141.2,108 L 10.8 108 C -3.5999999999999996,108 -3.5999999999999996,0 10.8,0 Z Z"/></g></g><g><g style="stroke: #108ab3;stroke-width: 2;stroke-opacity: 1;stroke-dasharray: none;stroke-linecap: round;stroke-linejoin: round;fill: transparent;fill-opacity: 0"><path d="M 141.2 0 C 126.79999999999998,0 126.79999999999998,108 141.2,108"/></g><g style="stroke: #108ab3;stroke-width: 2;stroke-opacity: 1;stroke-dasharray: none;stroke-linecap: round;stroke-linejoin: round;fill: transparent;fill-opacity: 0"></g></g><g transform="translate(16, 8)"><text xml:space="preserve" x="17.789843750000003" y="44" width="74.7099609375" textLength="74.7099609375" lengthAdjust="spacingAndGlyphs" letter-spacing="0" font-family='"Arial", Arial, sans-serif, Noto Sans Hebrew, Noto Sans, Noto Sans JP, Noto Sans KR' font-size="14" 
				fill="#222428" direction="ltr" >Partition p2 </text><text xml:space="preserve" x="32.18291015625" y="60" width="42.0341796875" textLength="42.0341796875" lengthAdjust="spacingAndGlyphs" letter-spacing="0" font-family='"Arial", Arial, sans-serif, Noto Sans Hebrew, Noto Sans, Noto Sans JP, Noto Sans KR' font-size="14" 
				fill="#222428" direction="ltr" >Queue</text></g></g><g width="144px" height="108px"  transform="translate(803.26, 60.96) scale(1) rotate(0, 72, 54)"><g><g style="stroke: #108ab3;stroke-width: 2;stroke-opacity: 1;stroke-dasharray: none;stroke-linecap: round;stroke-linejoin: round;fill: #adf0c7;fill-opacity: 1"><path d="M 10.8 0 L 133.2 0 C 147.6,0 147.6,108 133.2,108 L 10.8 108 C -3.5999999999999996,108 -3.5999999999999996,0 10.8,0 Z Z"/></g></g><g><g style="stroke: #108ab3;stroke-width: 2;stroke-opacity: 1;stroke-dasharray: none;stroke-linecap: round;stroke-linejoin: round;fill: transparent;fill-opacity: 0"><path d="M 133.2 0 C 118.79999999999998,0 118.79999999999998,108 133.2,108"/></g><g style="stroke: #108ab3;stroke-width: 2;stroke-opacity: 1;stroke-dasharray: none;stroke-linecap: round;stroke-linejoin: round;fill: transparent;fill-opacity: 0"></g></g><g transform="translate(16, 8)"><text xml:space="preserve" x="11.065722656250003" y="52" width="76.2685546875" textLength="76.2685546875" lengthAdjust="spacingAndGlyphs" letter-spacing="0" font-family='"Arial", Arial, sans-serif, Noto Sans Hebrew, Noto Sans, Noto Sans JP, Noto Sans KR' font-size="14" 
				fill="#222428" direction="ltr" >Main Queue</text></g></g><g width="0px" height="108px"  transform="translate(524.16, 365.24) scale(1) rotate(0, 0, 54)"><path stroke-linecap="butt" 
			stroke="#908e8e" stroke-width="2" fill="transparent"
			d="M 0 0 L 0 97.81818181818181" /> <use xlink:href="#LineHeadArrow2" fill="#908e8e"
			 transform="translate(0, 108)  rotate(90) "  /> </g><g width="0px" height="108px"  transform="translate(140.16, 365.24) scale(1) rotate(0, 0, 54)"><path stroke-linecap="butt" 
			stroke="#908e8e" stroke-width="2" fill="transparent"
			d="M 0 0 L 0 97.81818181818181" /> <use xlink:href="#LineHeadArrow2" fill="#908e8e"
			 transform="translate(0, 108)  rotate(90) "  /> </g><g width="0px" height="107.72px"  transform="translate(875.26, 365.24) scale(1) rotate(0, 0, 53.86)"><path stroke-linecap="butt" 
			stroke="#908e8e" stroke-width="2" fill="transparent"
			d="M 0 0 L 0 97.5349091605629" /> <use xlink:href="#LineHeadArrow2" fill="#908e8e"
			 transform="translate(0, 107.71672734238109)  rotate(90) "  /> </g><g width="207.1px" height="0.28px"  transform="translate(596.16, 114.96) scale(1) rotate(0, 103.55, 0.14)"><path stroke-linecap="butt" 
			stroke="#908e8e" stroke-width="2" fill="transparent"
			d="M 0 0.2832726576191362 L 103.40908828854606 0.2832726576191362 Q 103.55072461735563 0.2832726576191362 103.55072461735563 0.1416363288095681 L 103.55072461735563 0.1416363288095681 Q 103.55072461735563 0 103.6923609461652 0 L 196.91963105289307 0" /> <use xlink:href="#LineHeadArrow2" fill="#908e8e"
			 transform="translate(207.10144923471125, 0)  rotate(0) "  /> </g><g width="278.42px" height="108.84px"  transform="translate(178.16, 148.4) scale(1) rotate(0, 139.21, 54.42)"><path stroke-linecap="butt" 
			stroke="#908e8e" stroke-width="2" fill="transparent"
			d="M 278.42229123600055 0 L 278.42229123600055 46.84458247200064 Q 278.42229123600055 54.84458247200064 270.42229123600055 54.84458247200064 L 8 54.84458247200064 Q 0 54.84458247200064 0 62.84458247200064 L 0 98.66276429018245" /> <use xlink:href="#LineHeadArrow2" fill="#908e8e"
			 transform="translate(0, 108.84458247200064)  rotate(90) "  /> </g><g width="290.1px" height="108px"  transform="translate(585.16, 149.24) scale(1) rotate(0, 145.05, 54)"><path stroke-linecap="butt" 
			stroke="#908e8e" stroke-width="2" fill="transparent"
			d="M 0 0 L 0 45.99999999999977 Q 0 53.99999999999977 8 53.99999999999977 L 282.10144923471125 53.99999999999977 Q 290.10144923471125 53.99999999999977 290.10144923471125 61.99999999999977 L 290.10144923471125 97.81818181818159" /> <use xlink:href="#LineHeadArrow2" fill="#908e8e"
			 transform="translate(290.10144923471125, 108)  rotate(90) "  /> </g><g width="0px" height="108px"  transform="translate(524.16, 149.24) scale(1) rotate(0, 0, 54)"><path stroke-linecap="butt" 
			stroke="#908e8e" stroke-width="2" fill="transparent"
			d="M 0 0 L 0 97.81818181818181" /> <use xlink:href="#LineHeadArrow2" fill="#908e8e"
			 transform="translate(0, 108)  rotate(90) "  /> </g><g width="78.85px" height="322.62px"  transform="translate(373.31, 311.24) scale(1) rotate(0, 39.425, 161.31)"><path stroke-linecap="butt" 
			stroke="#908e8e" stroke-width="2" fill="transparent"
			d="M 78.8482909376994 0 L 8 0 Q 0 0 0 8 L 0 312.43676966989193" /> <use xlink:href="#LineHeadArrow2" fill="#908e8e"
			 transform="translate(4.547473508864641e-13, 322.6185878517099)  rotate(90) "  /> </g><g width="161.15px" height="322.62px"  transform="translate(212.16, 311.24) scale(1) rotate(0, 80.575, 161.31)"><path stroke-linecap="butt" 
			stroke="#908e8e" stroke-width="2" fill="transparent"
			d="M 0 0 L 153.1517090623006 0 Q 161.1517090623006 0 161.1517090623006 8 L 161.1517090623006 312.43676966989193" /> <use xlink:href="#LineHeadArrow2" fill="#908e8e"
			 transform="translate(161.1517090623006, 322.6185878517099)  rotate(90) "  /> </g><g width="137.41px" height="322.87px"  transform="translate(665.85, 311.24) scale(1) rotate(0, 68.705, 161.435)"><path stroke-linecap="butt" 
			stroke="#908e8e" stroke-width="2" fill="transparent"
			d="M 137.40933685235177 0 L 8 0 Q 0 0 0 8 L 0 312.6914880137036" /> <use xlink:href="#LineHeadArrow2" fill="#908e8e"
			 transform="translate(0, 322.87330619552176)  rotate(90) "  /> </g></svg>